<!--?xml version="1.0" encoding="utf-8"?-->
<!-- Generator: Adobe Illustrator 18.1.1, SVG Export Plug-In . SVG Version: 6.00 Build 0)  -->

<svg version="1.1" id="_x32_" xmlns="http://www.w3.org/2000/svg" xmlns:xlink="http://www.w3.org/1999/xlink" x="0px" y="0px" viewBox="0 0 512 512" style="width: 16px; height: 16px; opacity: 1;" xml:space="preserve">
<style type="text/css">
	.st0{fill:#4B4B4B;}
</style>
<g>
	<path class="st0" d="M424.329,111.575c-13.876-32.798-37.02-60.671-66.17-80.364C334.864,15.454,307.663,4.94,278.386,1.367
		C271.051,0.46,263.58,0,256.004,0h-0.008c-7.569,0-15.039,0.46-22.381,1.36c-17.072,2.092-33.447,6.534-48.736,13
		c-32.806,13.876-60.664,37.028-80.37,66.178C84.816,109.686,73.297,144.908,73.297,182.7c0,24.882,4.238,46.87,10.946,66.253
		c5.03,14.533,11.428,27.609,18.363,39.453c10.424,17.751,22.056,32.767,32.292,45.896c5.114,6.557,9.888,12.645,13.966,18.31
		c4.102,5.642,7.508,10.862,9.986,15.598l3.838,7.334h12.168l17.479,48.434L204.889,512h102.208l1.684-11.753l10.893-76.27
		l17.479-48.434h12.162l3.845-7.334c2.197-4.208,5.136-8.8,8.64-13.732c6.119-8.656,13.959-18.325,22.314-29.225
		c12.509-16.338,26.166-35.503,36.711-58.874c5.265-11.693,9.752-24.443,12.902-38.35c3.157-13.921,4.977-29.006,4.977-45.329
		C438.703,157.516,433.582,133.442,424.329,111.575z M270.681,375.544l-6.459,44.642h-16.444l-6.458-44.642H270.681z
		 M178.873,348.17c-1.978-3.203-4.094-6.368-6.337-9.533c-6.896-9.714-14.85-19.496-22.902-30.018
		c-12.071-15.765-24.308-33.1-33.501-53.502c-4.593-10.198-8.445-21.158-11.164-33.146c-2.711-11.98-4.298-24.972-4.298-39.271
		c0-21.49,4.351-41.885,12.207-60.459c11.783-27.85,31.491-51.599,56.289-68.346c0.764-0.514,1.542-1.012,2.312-1.518
		c-37.043,51.311-62.952,158.43,16.036,295.792H178.873z M213.628,33.243c4.358-1.232,8.784-2.289,13.294-3.142
		c1.813-0.34,3.641-0.65,5.469-0.922c-6.428,39.861-10.424,95.803-10.424,157.758c0,54.379,3.082,104.134,8.18,142.439
		c0.876,6.624,1.821,12.894,2.818,18.794h-24.738C157.973,206.849,178.436,75.551,213.628,33.243z M195.009,375.544h27.163
		l6.458,44.642h-17.524L195.009,375.544z M283.363,484.626h-54.726l-5.288-37.066h65.309L283.363,484.626z M300.895,420.186h-17.516
		l6.451-44.642h27.17L300.895,420.186z M303.773,348.17h-24.731c0.997-5.899,1.942-12.169,2.818-18.794
		c5.099-38.305,8.18-88.06,8.18-142.439c0-61.97-4.004-117.912-10.424-157.772c1.829,0.279,3.656,0.582,5.47,0.929
		c4.502,0.853,8.935,1.911,13.286,3.142C333.572,75.536,354.035,206.841,303.773,348.17z M401.88,240.002
		c-4.336,12.554-9.895,23.967-16.097,34.558c-9.306,15.878-20.077,29.859-30.268,42.904c-5.091,6.534-10.038,12.834-14.563,19.088
		c-2.787,3.867-5.438,7.72-7.848,11.618h-8.619c78.988-137.348,53.079-244.458,16.044-295.778
		c17.51,11.376,32.594,26.181,44.28,43.471c16.746,24.814,26.513,54.62,26.521,86.837
		C411.322,204.484,407.665,223.262,401.88,240.002z" style="fill: rgb(255, 255, 255);"></path>
</g>
</svg>
