<!--?xml version="1.0" encoding="utf-8"?-->
<!-- Generator: Adobe Illustrator 18.1.1, SVG Export Plug-In . SVG Version: 6.00 Build 0)  -->

<svg version="1.1" id="_x32_" xmlns="http://www.w3.org/2000/svg" xmlns:xlink="http://www.w3.org/1999/xlink" x="0px" y="0px" viewBox="0 0 512 512" style="width: 16px; height: 16px; opacity: 1;" xml:space="preserve">
<style type="text/css">
	.st0{fill:#4B4B4B;}
</style>
<g>
	<path class="st0" d="M410.842,207.265c97.767-8.626,117.891-54.628,89.098-97.749C448.234,32.075,334.016,1.59,218.762,36.607
		C73.721,80.672-22.226,214.687,4.453,335.938C31.13,457.19,170.334,519.762,315.375,475.697
		c62.951-19.13,116.653-55.201,155.091-99.821c15.516-18.01,20.891-73.726-50.998-70.844
		C342.812,308.106,332.197,214.206,410.842,207.265z M385.949,102.144c7.068-7.059,16.84-11.111,26.839-11.111
		c9.998,0,19.762,4.052,26.838,11.111c7.067,7.076,11.119,16.848,11.119,26.847s-4.052,19.762-11.119,26.838
		c-7.076,7.067-16.84,11.12-26.838,11.12c-9.999,0-19.771-4.052-26.839-11.12c-7.067-7.076-11.119-16.839-11.119-26.838
		S378.882,109.22,385.949,102.144z M65.256,226.724c5.711-17.185,24.26-26.485,41.436-20.782
		c17.185,5.711,26.493,24.261,20.79,41.437c-5.711,17.184-24.269,26.484-41.438,20.789C68.861,262.449,59.553,243.9,65.256,226.724z
		 M127.946,377.433c-11.794,12.451-31.455,12.998-43.905,1.214c-12.459-11.793-12.998-31.446-1.204-43.896
		c11.785-12.459,31.437-13.006,43.896-1.213C139.182,345.323,139.73,364.975,127.946,377.433z M190.542,171.051
		c-15.466,11.128-37.031,7.606-48.159-7.86c-11.128-15.474-7.606-37.03,7.859-48.159v-0.008
		c15.475-11.119,37.032-7.598,48.159,7.868C209.53,138.358,206.009,159.923,190.542,171.051z M250.461,105.589
		c-2.317-19.88,11.919-37.857,31.8-40.165c19.872-2.308,37.857,11.929,40.165,31.8c2.316,19.872-11.928,37.856-31.801,40.164
		C270.746,139.706,252.769,125.461,250.461,105.589z M360.897,377.106c0,12.121-4.911,23.948-13.478,32.524
		c-8.567,8.566-20.411,13.478-32.533,13.478c-12.113,0-23.965-4.912-32.524-13.478c-8.566-8.576-13.478-20.403-13.478-32.524
		c0-12.122,4.912-23.974,13.478-32.542c8.559-8.559,20.411-13.47,32.524-13.47c12.122,0,23.966,4.911,32.533,13.47
		C355.986,353.131,360.897,364.983,360.897,377.106z" style="fill: rgb(75, 75, 75);"></path>
</g>
</svg>
